PathFileType	4	(X/Y/Z)	D:\MotionData\NordSprintingStudy\Test 2\Edited\COP_Left_Board_FP2000002.trc
DataRate	CameraRate	NumFrames	NumMarkers	Units	OrigDataRate	OrigDataStartFrame	OrigNumFrames
200.00	200.00	     66	5	mm	200.00	1	     12696
Frame#	Time	M1			M2			M3			M4			M5			
		X1	Y1	Z1	X2	Y2	Z2	X3	Y3	Z3	X4	Y4	Z4	X5	Y5	Z5	

1	0.000	1051.27454	1927.41895	48.79094	1034.42773	2247.81738	57.18753	1234.30737	2258.63867	56.42832	1633.54333	2280.09253	56.63195	1650.53442	1959.26428	47.31196	
2	0.005	1051.33630	1927.43372	48.71265	1034.54028	2247.84082	57.09381	1234.32275	2258.63477	56.43206	1633.61426	2280.11865	56.56905	1650.58777	1959.26050	47.26108	
3	0.010	1051.34033	1927.40637	48.74109	1034.35693	2247.77295	57.27744	1234.28394	2258.62061	56.46080	1633.55566	2280.09253	56.65199	1650.59827	1959.26526	47.29180	
4	0.015	1051.34875	1927.43542	48.71473	1034.48853	2247.80640	57.16550	1234.27905	2258.62305	56.50790	1633.56934	2280.03662	56.63714	1650.62646	1959.27893	47.25387	
5	0.020	1051.31616	1927.44312	48.78642	1034.42297	2247.80005	57.19494	1234.29126	2258.64331	56.49298	1633.53040	2280.06055	56.68519	1650.53076	1959.25476	47.34937	
6	0.025	1051.29724	1927.42407	48.79910	1034.39551	2247.80127	57.30664	1234.16394	2258.58545	56.63080	1633.50903	2280.05688	56.67862	1650.55054	1959.27161	47.32633	
7	0.030	1051.33801	1927.45020	48.75415	1034.31628	2247.75439	57.36507	1234.26831	2258.61841	56.49550	1633.42834	2280.02417	56.77142	1650.55701	1959.27039	47.28527	
8	0.035	1051.29871	1927.40979	48.80500	1034.35254	2247.79297	57.30056	1234.29370	2258.62476	56.47987	1633.48486	2280.09131	56.71105	1650.52576	1959.25891	47.37707	
9	0.040	1051.28699	1927.40942	48.79147	1034.33191	2247.76880	57.34144	1234.25171	2258.62769	56.55122	1633.46545	2280.02759	56.72600	1650.53516	1959.27075	47.29932	
10	0.045	1051.20593	1927.38599	48.87311	1034.28394	2247.78931	57.38014	1234.19580	2258.61572	56.55542	1633.46948	2280.06860	56.69221	1650.46582	1959.23010	47.41609	
11	0.050	1051.25378	1927.41467	48.80797	1034.37903	2247.79419	57.22974	1234.12305	2258.59717	56.64751	1633.50696	2280.06763	56.66460	1650.48743	1959.25208	47.37415	
12	0.055	1051.22754	1927.38171	48.84162	1034.31970	2247.76221	57.29619	1234.21875	2258.62671	56.56305	1633.47021	2280.05151	56.69626	1650.43433	1959.24255	47.41058	
13	0.060	1051.23901	1927.43726	48.79877	1034.29211	2247.75659	57.31095	1234.14551	2258.60352	56.60641	1633.45251	2280.03271	56.70505	1650.46826	1959.25769	47.33579	
14	0.065	1051.16516	1927.39209	48.87675	1034.28894	2247.77612	57.30295	1234.17273	2258.60791	56.54708	1633.45996	2280.04541	56.67781	1650.41956	1959.22815	47.42397	
15	0.070	1051.22766	1927.41467	48.79589	1034.36218	2247.80981	57.27042	1234.12048	2258.58765	56.64429	1633.43933	2280.05054	56.68279	1650.46130	1959.25513	47.33062	
16	0.075	1051.22144	1927.39233	48.84032	1034.19421	2247.72705	57.37254	1234.12903	2258.61035	56.53733	1633.40234	2280.04736	56.73579	1650.42273	1959.24231	47.37806	
17	0.080	1051.25220	1927.43408	48.75952	1034.29333	2247.81860	57.24202	1234.11572	2258.59912	56.58446	1633.46045	2280.05078	56.61196	1650.45117	1959.25000	47.31050	
18	0.085	1051.20325	1927.39905	48.82303	1034.32422	2247.77954	57.20707	1234.23254	2258.64844	56.45493	1633.47351	2280.08154	56.62505	1650.43396	1959.25635	47.33442	
19	0.090	1051.28381	1927.44458	48.71019	1034.30322	2247.78857	57.20152	1234.21545	2258.63892	56.45103	1633.43140	2280.07373	56.65574	1650.51135	1959.27197	47.23654	
20	0.095	1051.23267	1927.39099	48.80136	1034.29919	2247.80054	57.22444	1234.19531	2258.62598	56.45054	1633.48999	2280.06543	56.60445	1650.42188	1959.25049	47.33044	
21	0.100	1051.23962	1927.42395	48.73568	1034.36584	2247.80396	57.16655	1234.10229	2258.58423	56.56863	1633.49268	2280.07935	56.57154	1650.49487	1959.27808	47.25748	
22	0.105	1051.25635	1927.41138	48.77053	1034.33923	2247.76636	57.20646	1234.21240	2258.63379	56.44223	1633.46362	2280.05957	56.63851	1650.46082	1959.24744	47.32589	
23	0.110	1051.27881	1927.45105	48.72047	1034.35486	2247.81274	57.19924	1234.11401	2258.60718	56.55679	1633.49194	2280.08398	56.58213	1650.49866	1959.25049	47.28930	
24	0.115	1051.28113	1927.41675	48.71263	1034.28577	2247.81323	57.28609	1234.22412	2258.62061	56.45885	1633.48157	2280.07983	56.65922	1650.54407	1959.28137	47.25099	
25	0.120	1051.27490	1927.43347	48.71388	1034.36816	2247.80835	57.24146	1234.16687	2258.61523	56.53833	1633.52161	2280.09253	56.59629	1650.54700	1959.29407	47.23961	
26	0.125	1051.33594	1927.43677	48.69350	1034.28333	2247.74756	57.28828	1234.24280	2258.66040	56.46428	1633.46033	2280.04346	56.68003	1650.60071	1959.27795	47.23728	
27	0.130	1051.32312	1927.44592	48.71052	1034.40222	2247.81665	57.19411	1234.30640	2258.63965	56.37847	1633.53650	2280.04834	56.61511	1650.58643	1959.28931	47.23662	
28	0.135	1051.35889	1927.44385	48.69307	1034.37488	2247.76587	57.21566	1234.26733	2258.62573	56.44741	1633.50806	2280.05884	56.64183	1650.62256	1959.29053	47.24308	
29	0.140	1051.31873	1927.43384	48.75451	1034.48425	2247.81909	57.15742	1234.31323	2258.64575	56.44032	1633.55457	2280.09326	56.62329	1650.56055	1959.28003	47.26971	
30	0.145	1051.37219	1927.45422	48.71125	1034.44910	2247.79370	57.18423	1234.23145	2258.64331	56.51493	1633.60168	2280.09619	56.56228	1650.59290	1959.27368	47.26009	
31	0.150	1051.31616	1927.41602	48.74056	1034.35706	2247.75977	57.31789	1234.26440	2258.62231	56.50557	1633.51147	2280.04688	56.68471	1650.58667	1959.27539	47.25806	
32	0.155	1051.32507	1927.42883	48.75384	1034.41968	2247.81421	57.20823	1234.25842	2258.61182	56.49966	1633.55151	2280.06616	56.62422	1650.56592	1959.27490	47.28674	
33	0.160	1051.34546	1927.43237	48.71154	1034.36255	2247.76831	57.29039	1234.24060	2258.61768	56.53289	1633.46069	2280.07861	56.71890	1650.58545	1959.27466	47.25074	
34	0.165	1051.28552	1927.41907	48.81115	1034.41309	2247.79517	57.18568	1234.25610	2258.62231	56.48937	1633.51758	2280.07251	56.63928	1650.52563	1959.28186	47.32228	
35	0.170	1051.30103	1927.42590	48.76693	1034.33936	2247.78247	57.27079	1234.21448	2258.61548	56.56503	1633.49231	2280.06958	56.64270	1650.52148	1959.25464	47.29446	
36	0.175	1051.31836	1927.42725	48.75130	1034.35217	2247.74512	57.25061	1234.23706	2258.62329	56.52142	1633.49963	2280.05566	56.69699	1650.53162	1959.25989	47.28119	
37	0.180	1051.24866	1927.41345	48.82560	1034.32629	2247.78979	57.28281	1234.25159	2258.62256	56.48884	1633.47717	2280.08276	56.68922	1650.47803	1959.25024	47.37286	
38	0.185	1051.26624	1927.40955	48.82847	1034.34705	2247.75903	57.27312	1234.15088	2258.60425	56.63291	1633.48108	2280.06982	56.69684	1650.49829	1959.27002	47.34361	
39	0.190	1051.26746	1927.41663	48.80198	1034.25171	2247.73901	57.39457	1234.13196	2258.59253	56.61423	1633.40344	2280.03784	56.76034	1650.44128	1959.24451	47.38802	
40	0.195	1051.26111	1927.41174	48.81901	1034.30139	2247.79272	57.31563	1234.14978	2258.59717	56.63782	1633.42615	2280.02759	56.74148	1650.44946	1959.24500	47.36074	
41	0.200	1051.24719	1927.41638	48.82045	1034.28613	2247.75903	57.32602	1234.14771	2258.59644	56.59122	1633.39954	2280.02734	56.76265	1650.48474	1959.26184	47.34007	
42	0.205	1051.26074	1927.41479	48.80445	1034.24207	2247.74121	57.43716	1234.16492	2258.60059	56.57843	1633.43860	2280.03003	56.75795	1650.43323	1959.23779	47.35192	
43	0.210	1051.26855	1927.42212	48.79615	1034.33582	2247.77832	57.26728	1234.19189	2258.60254	56.53912	1633.43677	2280.03052	56.72121	1650.49841	1959.22961	47.32529	
44	0.215	1051.23694	1927.42029	48.80151	1034.29810	2247.75928	57.31478	1234.22168	2258.64551	56.53284	1633.49109	2280.06812	56.68890	1650.41394	1959.25549	47.40593	
45	0.220	1051.28198	1927.42529	48.78728	1034.37305	2247.79346	57.20069	1234.16492	2258.61182	56.57852	1633.50061	2280.06079	56.62437	1650.50659	1959.25159	47.30742	
46	0.225	1051.24438	1927.41248	48.80343	1034.36328	2247.77393	57.20509	1234.24548	2258.63281	56.46828	1633.50330	2280.04492	56.66640	1650.46069	1959.26270	47.32396	
47	0.230	1051.29163	1927.41235	48.74950	1034.38293	2247.82568	57.20646	1234.14270	2258.61353	56.55117	1633.49878	2280.04517	56.64580	1650.52100	1959.26794	47.27889	
48	0.235	1051.28943	1927.43591	48.74815	1034.27441	2247.77148	57.32629	1234.20251	2258.63281	56.51059	1633.43567	2280.02319	56.75409	1650.53345	1959.28650	47.24846	
49	0.240	1051.31396	1927.43628	48.72093	1034.32556	2247.79834	57.21365	1234.26636	2258.63965	56.40916	1633.54541	2280.08789	56.62922	1650.56689	1959.27466	47.27850	
50	0.245	1051.32178	1927.45142	48.68253	1034.45752	2247.80225	57.14733	1234.25684	2258.64844	56.49906	1633.57898	2280.07373	56.59590	1650.55762	1959.28516	47.22530	
51	0.250	1051.31641	1927.40747	48.73710	1034.38208	2247.79468	57.21008	1234.29407	2258.63574	56.39981	1633.54871	2280.07642	56.62515	1650.55432	1959.27576	47.26418	
52	0.255	1051.35205	1927.42761	48.67734	1034.41748	2247.78027	57.17352	1234.26172	2258.63525	56.48154	1633.53711	2280.05615	56.63338	1650.58337	1959.27686	47.22781	
53	0.260	1051.33264	1927.43909	48.72339	1034.37732	2247.76489	57.20540	1234.30835	2258.65869	56.42741	1633.53357	2280.06006	56.64001	1650.57874	1959.27869	47.25896	
54	0.265	1051.30872	1927.43530	48.70293	1034.46472	2247.77905	57.15390	1234.22400	2258.61475	56.53289	1633.57739	2280.09351	56.59425	1650.59326	1959.27539	47.24532	
55	0.270	1051.27979	1927.40051	48.78448	1034.37854	2247.78027	57.27816	1234.26733	2258.66284	56.48109	1633.50378	2280.07568	56.68719	1650.54944	1959.25366	47.30506	
56	0.275	1051.32788	1927.44214	48.74947	1034.37207	2247.79053	57.23923	1234.25525	2258.62256	56.50137	1633.51392	2280.08789	56.64645	1650.54382	1959.27148	47.30661	
57	0.280	1051.32629	1927.39978	48.77959	1034.44958	2247.81201	57.20656	1234.19812	2258.61206	56.56675	1633.57898	2280.06079	56.60666	1650.54163	1959.26733	47.30313	
58	0.285	1051.25793	1927.41223	48.82533	1034.37695	2247.81372	57.22554	1234.26563	2258.64355	56.47977	1633.52954	2280.07715	56.64916	1650.48523	1959.26428	47.36462	
59	0.290	1051.30823	1927.42041	48.79095	1034.34253	2247.78369	57.29315	1234.15808	2258.60181	56.62177	1633.52539	2280.06641	56.66849	1650.54443	1959.27722	47.31063	
60	0.295	1051.27759	1927.42517	48.77093	1034.27112	2247.75732	57.31404	1234.21936	2258.63843	56.48462	1633.45728	2280.07324	56.71343	1650.52026	1959.25916	47.28405	
61	0.300	1051.29492	1927.43115	48.76736	1034.34863	2247.76196	57.27200	1234.25684	2258.60278	56.48854	1633.48828	2280.04761	56.69754	1650.51538	1959.26733	47.30881	
62	0.305	1051.29980	1927.43518	48.72123	1034.36426	2247.79053	57.19598	1234.18762	2258.60034	56.51500	1633.41797	2280.02539	56.71745	1650.54456	1959.27344	47.27409	
63	0.310	1051.25830	1927.44324	48.77693	1034.34595	2247.80566	57.24611	1234.20288	2258.62109	56.49725	1633.47925	2280.04614	56.69508	1650.46716	1959.27356	47.31960	
64	0.315	1051.24841	1927.43372	48.74039	1034.33716	2247.76807	57.16769	1234.21460	2258.63989	56.46388	1633.48450	2280.05908	56.63354	1650.50830	1959.25452	47.29216	
65	0.320	1051.24854	1927.43103	48.76024	1034.29041	2247.75049	57.31385	1234.21118	2258.61987	56.49113	1633.47620	2280.06079	56.68340	1650.48523	1959.27051	47.27905	
66	0.325	1051.21277	1927.42639	48.79528	1034.18616	2247.75757	57.38939	1234.16382	2258.60669	56.50520	1633.39990	2280.04932	56.71512	1650.45972	1959.25586	47.32467	
